<?xml version="1.0" encoding="utf-8"?>
<!-- Generator: Adobe Illustrator 24.3.0, SVG Export Plug-In . SVG Version: 6.00 Build 0)  -->
<svg version="1.1" id="Layer_1" xmlns="http://www.w3.org/2000/svg" xmlns:xlink="http://www.w3.org/1999/xlink" x="0px" y="0px"
	 viewBox="0 0 310 66" style="enable-background:new 0 0 310 66;" xml:space="preserve">
<style type="text/css">
	.st0{fill:#FFFFFF;}
	.st1{fill:url(#SVGID_2_);}
</style>
<g>
	<g>
		<g>
			<polygon class="st0" points="52.3,44.5 40.9,29 40.9,28.9 34.5,28.9 34.4,63.2 41.5,63.2 41.5,40.8 51.9,54.8 52.9,54.8 
				63.3,40.5 63.3,63.2 70.2,63.2 70.2,28.9 63.7,28.9 			"/>
			<path class="st0" d="M19.4,28.4c-3.8,0-7.1,0.8-10.2,2.3C0.5,35.2-0.1,43.9,0,46.4c0,3.3,1,11.4,9.3,15.5c2.7,1.3,6,1.8,9.4,1.8
				c1.8,0,3.6,0,5.5-0.3h0.2l4.4-6.2l-0.9,0.2c-1.2,0.2-3,0.3-5.3,0.3c-2.2,0-4.4-0.2-6.4-0.5c-6-1-8.6-5.7-9.1-9.8v-0.3
				c-0.3-4.9,2.4-10.7,9.1-11.8c3.2-0.6,6.6-0.2,10.1,1l0.3,0.1l3.6-5.1l0.4-0.6l-0.4-0.2C29.5,30.1,24.9,28.4,19.4,28.4z"/>
			<path class="st0" d="M102,50.8c-1.6-5.6-7.1-6.8-12-7.8c-0.4-0.1-0.9-0.2-1.3-0.3c-5-1.1-5.3-3.6-5.2-4.6
				c0.3-2.4,2.3-3.7,6.1-3.8h0.3c2.3,0,4.7,0.6,6.5,1.3l3.7-5.2c-3.2-1.3-7.4-2-11.2-2c-1,0-2,0.1-2.9,0.2
				c-8.4,1.2-10.2,7.1-10,10.5c0.5,7.1,5.7,8.7,12.1,10s6.3,3.7,6.2,4.7c0,1.9-1.2,4.2-6.3,4.2h-0.2c-3,0-6-1.1-8.1-2.1L76.1,61
				c3.8,1.8,8.2,2.8,12.4,2.8c2.1,0,4.1-0.3,5.8-0.7c2.9-0.8,5.4-2.8,6.8-5.2C102.4,55.7,102.7,53.3,102,50.8z"/>
		</g>
		<g>
			<g>
				<g>
					
						<linearGradient id="SVGID_2_" gradientUnits="userSpaceOnUse" x1="80.8756" y1="28.7884" x2="112.9092" y2="52.4216" gradientTransform="matrix(0.9996 2.760000e-02 -2.760000e-02 0.9996 5.4704 -32.0932)">
						<stop  offset="0" style="stop-color:#034EA2"/>
						<stop  offset="0.105" style="stop-color:#4C4A93"/>
						<stop  offset="0.2919" style="stop-color:#83447E"/>
						<stop  offset="0.4702" style="stop-color:#A93B6D"/>
						<stop  offset="0.6351" style="stop-color:#C6315F"/>
						<stop  offset="0.7833" style="stop-color:#DA2555"/>
						<stop  offset="0.91" style="stop-color:#E71C4E"/>
						<stop  offset="1" style="stop-color:#ED174C"/>
					</linearGradient>
					<path id="SVGID_1_" class="st1" d="M97.1,8C87.2,9.9,81,4.7,81,4.7L70.7,19c0,0,5,3.9,21-2.3c16.2-6.3,26.9,4.4,26.9,4.4
						l12.8-18c-3.1-2.3-5.9-3-9.1-3.1C112.4-0.3,102.9,7,97.1,8"/>
				</g>
			</g>
		</g>
	</g>
	<g>
		<path class="st0" d="M130.8,57.7L130.8,57.7c0-3.2,2.3-5.9,5.7-5.9c2,0,3.3,0.8,4.4,1.8l-0.8,0.9c-0.9-0.9-2-1.5-3.5-1.5
			c-2.5,0-4.4,2-4.4,4.6l0,0c0,2.6,1.8,4.6,4.4,4.6c1.5,0,2.5-0.6,3.6-1.6l0.8,0.8c-1.2,1.2-2.4,2-4.5,2
			C133.2,63.4,130.8,60.9,130.8,57.7z"/>
		<path class="st0" d="M142.3,59.1L142.3,59.1c0-2.3,1.8-4.4,4.4-4.4s4.3,1.9,4.3,4.3l0,0c0,2.3-1.8,4.4-4.4,4.4
			C144.1,63.4,142.3,61.5,142.3,59.1z M149.7,59.1L149.7,59.1c0-1.8-1.3-3.3-3.1-3.3s-3,1.4-3,3.2l0,0c0,1.8,1.3,3.2,3.1,3.2
			C148.4,62.3,149.7,60.9,149.7,59.1z"/>
		<path class="st0" d="M153,54.9h1.3v1.4c0.6-0.9,1.4-1.6,2.9-1.6c2,0,3.2,1.3,3.2,3.4v5.1h-1.3v-4.9c0-1.5-0.8-2.5-2.3-2.5
			c-1.4,0-2.5,1-2.5,2.6v4.8H153V54.9z"/>
		<path class="st0" d="M162.8,54.9h1.3v1.4c0.6-0.9,1.4-1.6,2.9-1.6c2,0,3.2,1.3,3.2,3.4v5.1h-1.3v-4.9c0-1.5-0.8-2.5-2.3-2.5
			c-1.4,0-2.5,1-2.5,2.6v4.8h-1.3L162.8,54.9L162.8,54.9z"/>
		<path class="st0" d="M176.2,62.4c1.2,0,1.9-0.5,2.6-1.2l0.8,0.7c-0.8,0.9-1.8,1.6-3.4,1.6c-2.3,0-4.1-1.8-4.1-4.4
			c0-2.4,1.7-4.4,3.9-4.4c2.4,0,3.9,1.9,3.9,4.4c0,0.1,0,0.3,0,0.4h-6.5C173.5,61.4,174.8,62.4,176.2,62.4z M178.6,58.6
			c-0.2-1.5-1-2.8-2.7-2.8c-1.4,0-2.5,1.2-2.7,2.8H178.6z"/>
		<path class="st0" d="M181.5,59.1L181.5,59.1c0-2.3,1.8-4.4,4.3-4.4c1.6,0,2.5,0.7,3.4,1.5l-0.8,0.8c-0.7-0.7-1.4-1.3-2.5-1.3
			c-1.7,0-2.9,1.4-2.9,3.2l0,0c0,1.8,1.3,3.2,3,3.2c1.1,0,1.8-0.5,2.5-1.3l0.8,0.8c-0.8,0.9-1.8,1.6-3.4,1.6
			C183.3,63.4,181.5,61.5,181.5,59.1z"/>
		<path class="st0" d="M191.6,61.1v-5h-1.2V55h1.2v-2.5h1.3V55h2.6v1h-2.6v4.9c0,1,0.6,1.3,1.4,1.3c0.4,0,0.8-0.1,1.2-0.3V63
			c-0.4,0.3-0.9,0.3-1.5,0.3C192.6,63.4,191.6,62.7,191.6,61.1z"/>
		<path class="st0" d="M197.2,51.8h1.4v1.3h-1.4V51.8z M197.3,54.9h1.3v8.3h-1.3V54.9z"/>
		<path class="st0" d="M201.2,54.9h1.3v1.4c0.6-0.9,1.4-1.6,2.9-1.6c2,0,3.2,1.3,3.2,3.4v5.1h-1.3v-4.9c0-1.5-0.8-2.5-2.3-2.5
			c-1.4,0-2.5,1-2.5,2.6v4.8h-1.3L201.2,54.9L201.2,54.9z"/>
		<path class="st0" d="M210.8,64.7l0.6-0.9c0.9,0.7,2,1.1,3.2,1.1c1.8,0,3-1,3-2.9v-1c-0.8,0.9-1.8,1.8-3.3,1.8
			c-2,0-3.9-1.5-3.9-3.9l0,0c0-2.4,1.9-3.9,3.9-3.9c1.6,0,2.6,0.8,3.3,1.7V55h1.3v6.9c0,1.3-0.4,2.3-1.1,2.9
			c-0.8,0.8-1.8,1.1-3.2,1.1C213.2,65.9,211.9,65.5,210.8,64.7z M217.6,58.7L217.6,58.7c0-1.8-1.5-2.9-3-2.9c-1.6,0-2.9,1.1-2.9,2.8
			l0,0c0,1.7,1.3,2.9,2.9,2.9C216.1,61.6,217.6,60.4,217.6,58.7z"/>
		<path class="st0" d="M225.9,57.7L225.9,57.7c0-3.2,2.3-5.9,5.7-5.9c2,0,3.3,0.8,4.4,1.8l-0.8,0.9c-0.9-0.9-2-1.5-3.5-1.5
			c-2.5,0-4.4,2-4.4,4.6l0,0c0,2.6,1.8,4.6,4.4,4.6c1.5,0,2.5-0.6,3.6-1.6l0.8,0.8c-1.2,1.2-2.4,2-4.5,2
			C228.3,63.4,225.9,60.9,225.9,57.7z"/>
		<path class="st0" d="M237.4,59.1L237.4,59.1c0-2.3,1.8-4.4,4.4-4.4s4.3,1.9,4.3,4.3l0,0c0,2.3-1.8,4.4-4.4,4.4
			C239.2,63.4,237.4,61.5,237.4,59.1z M244.7,59.1L244.7,59.1c0-1.8-1.3-3.3-3.1-3.3s-3,1.4-3,3.2l0,0c0,1.8,1.3,3.2,3.1,3.2
			C243.6,62.3,244.7,60.9,244.7,59.1z"/>
		<path class="st0" d="M248.1,54.9h1.3v1.4c0.6-0.8,1.3-1.6,2.7-1.6c1.3,0,2.2,0.8,2.7,1.7c0.6-0.9,1.5-1.7,2.9-1.7
			c1.9,0,3.1,1.3,3.1,3.4v5.1h-1.3v-4.9c0-1.6-0.8-2.5-2.2-2.5c-1.3,0-2.3,0.9-2.3,2.6v4.8h-1.3v-4.9c0-1.6-0.8-2.4-2.1-2.4
			s-2.3,1.1-2.3,2.6v4.7H248L248.1,54.9L248.1,54.9z"/>
		<path class="st0" d="M263.3,54.9h1.3v1.4c0.6-0.8,1.3-1.6,2.7-1.6c1.3,0,2.2,0.8,2.7,1.7c0.6-0.9,1.5-1.7,2.9-1.7
			c1.9,0,3.1,1.3,3.1,3.4v5.1h-1.3v-4.9c0-1.6-0.8-2.5-2.2-2.5c-1.3,0-2.3,0.9-2.3,2.6v4.8H269v-4.9c0-1.6-0.8-2.4-2.1-2.4
			c-1.3,0-2.3,1.1-2.3,2.6v4.7h-1.3L263.3,54.9L263.3,54.9z"/>
		<path class="st0" d="M282.1,62.4c1.2,0,1.9-0.5,2.6-1.2l0.8,0.7c-0.8,0.9-1.8,1.6-3.4,1.6c-2.3,0-4.1-1.8-4.1-4.4
			c0-2.4,1.7-4.4,3.9-4.4c2.4,0,3.9,1.9,3.9,4.4c0,0.1,0,0.3,0,0.4h-6.5C279.4,61.4,280.6,62.4,282.1,62.4z M284.5,58.6
			c-0.2-1.5-1-2.8-2.7-2.8c-1.4,0-2.5,1.2-2.7,2.8H284.5z"/>
		<path class="st0" d="M287.9,54.9h1.3v2.2c0.6-1.3,1.8-2.3,3.4-2.3v1.3h-0.1c-1.8,0-3.3,1.3-3.3,3.8v3.3h-1.3V54.9z"/>
		<path class="st0" d="M293.4,59.1L293.4,59.1c0-2.3,1.8-4.4,4.3-4.4c1.6,0,2.5,0.7,3.4,1.5l-0.8,0.8c-0.7-0.7-1.4-1.3-2.5-1.3
			c-1.7,0-2.9,1.4-2.9,3.2l0,0c0,1.8,1.3,3.2,3,3.2c1.1,0,1.8-0.5,2.5-1.3l0.8,0.8c-0.8,0.9-1.8,1.6-3.4,1.6
			C295.2,63.4,293.4,61.5,293.4,59.1z"/>
		<path class="st0" d="M306.4,62.4c1.2,0,1.9-0.5,2.6-1.2l0.8,0.7c-0.8,0.9-1.8,1.6-3.4,1.6c-2.3,0-4.1-1.8-4.1-4.4
			c0-2.4,1.7-4.4,3.9-4.4c2.4,0,3.9,1.9,3.9,4.4c0,0.1,0,0.3,0,0.4h-6.5C303.6,61.4,304.9,62.4,306.4,62.4z M308.8,58.6
			c-0.2-1.5-1-2.8-2.7-2.8c-1.4,0-2.5,1.2-2.7,2.8H308.8z"/>
	</g>
</g>
</svg>
